<?xml version="1.0" encoding="utf-8"?>
<!-- Generator: Adobe Illustrator 24.0.3, SVG Export Plug-In . SVG Version: 6.00 Build 0)  -->
<svg version="1.1" id="Layer_1" xmlns="http://www.w3.org/2000/svg" xmlns:xlink="http://www.w3.org/1999/xlink" x="0px" y="0px"
	 viewBox="0 0 500 196" style="enable-background:new 0 0 500 196;" xml:space="preserve">
<style type="text/css">
	.st0{fill:#92867F;}
</style>
<g>
	<g>
		<g>
			<polygon class="st0" points="230.73,186.35 239.03,122.24 257.52,122.24 249.22,186.35 			"/>
		</g>
		<g>
			<g>
				<path class="st0" d="M54.08,40.03c-3.49,0-6.92,0.74-10.29,2.22c-3.38,1.48-6.72,3.72-10.03,6.73c0.44-1.18,0.83-2.49,1.18-3.95
					s0.61-3.02,0.78-4.67L40.55,5h-18.5L8.86,106.3h18.43l0.92-7.65c3.48,3.57,6.95,6.17,10.39,7.78c3.44,1.61,7.17,2.42,11.18,2.42
					c9.15,0,16.54-3.54,22.19-10.62c5.64-7.08,8.46-16.39,8.46-27.94c0-9.5-2.33-16.92-6.99-22.25
					C68.76,42.7,62.32,40.03,54.08,40.03z M57.81,88.13c-3.05,3.83-7.23,5.75-12.55,5.75c-4.49,0-8.07-1.39-10.75-4.18
					s-4.02-6.49-4.02-11.11c0-6.88,1.53-12.31,4.61-16.27c3.07-3.96,7.24-5.95,12.51-5.95c4.71,0,8.34,1.39,10.92,4.18
					c2.57,2.79,3.86,6.71,3.86,11.76C62.38,79.03,60.86,84.3,57.81,88.13z"/>
			</g>
			<g>
				<path class="st0" d="M141.23,40.03c-4.05,0-7.72,1.13-11.01,3.4c-3.29,2.27-6.09,5.6-8.4,10l1.63-11.24h-18.5l-8.43,64.11h18.5
					l3.46-27.32c0.87-7.06,2.75-12.34,5.65-15.85c2.9-3.51,6.81-5.26,11.73-5.26c1.18,0,2.39,0.11,3.63,0.33s2.54,0.55,3.89,0.98
					l3.59-18.49c-0.87-0.22-1.76-0.38-2.68-0.49C143.38,40.09,142.36,40.03,141.23,40.03z"/>
			</g>
			<g>
				<path class="st0" d="M207.85,51.14c-2.35-3.7-5.27-6.48-8.76-8.33c-3.49-1.85-7.52-2.78-12.09-2.78
					c-8.98,0-16.37,3.6-22.19,10.78c-5.82,7.19-8.72,16.36-8.72,27.52c0,9.67,2.28,17.18,6.83,22.51
					c4.55,5.34,10.92,8.01,19.12,8.01c4.31,0,8.1-0.81,11.37-2.42c3.27-1.61,5.99-4.03,8.17-7.25l-1.05,7.12h18.43l8.43-64.11
					h-18.43L207.85,51.14z M201.48,86.43c-3.03,3.96-7,5.95-11.93,5.95c-4.75,0-8.51-1.39-11.27-4.18
					c-2.77-2.79-4.15-6.54-4.15-11.24c0-6.88,1.54-12.3,4.61-16.24s7.24-5.91,12.52-5.91c4.62,0,8.23,1.4,10.85,4.22
					c2.61,2.81,3.92,6.7,3.92,11.67C206.02,77.22,204.5,82.47,201.48,86.43z"/>
			</g>
			<g>
				<path class="st0" d="M388.74,5l-5.23,37.97c-0.09,0.83-0.15,1.62-0.2,2.39c-0.04,0.76-0.06,1.49-0.06,2.19
					c0,0.44,0.02,1.14,0.06,2.12s0.06,1.75,0.06,2.32c-2.4-3.96-5.42-6.95-9.08-8.95c-3.66-2-7.87-3.01-12.61-3.01
					c-8.98,0-16.35,3.58-22.12,10.75s-8.66,16.35-8.66,27.55c0,9.63,2.26,17.1,6.8,22.42c4.53,5.32,10.91,7.97,19.15,7.97
					c4.4,0,8.23-0.8,11.5-2.39s5.95-3.97,8.04-7.16l-0.91,7.12h18.43L407.17,5H388.74z M376.29,86.43c-3.03,3.96-7,5.95-11.93,5.95
					c-4.75,0-8.51-1.37-11.27-4.12c-2.77-2.75-4.15-6.45-4.15-11.11c0-6.93,1.54-12.38,4.61-16.37c3.07-3.99,7.24-5.98,12.52-5.98
					c4.66,0,8.29,1.39,10.88,4.18s3.89,6.69,3.89,11.7C380.83,77.22,379.31,82.47,376.29,86.43z"/>
			</g>
			<g>
				<path class="st0" d="M307.8,100.94h-0.15l3.74-28.56c0.04-0.31,0.11-0.78,0.2-1.44c0.74-5.36,1.11-9.24,1.11-11.63
					c0-6.06-1.93-10.78-5.78-14.18c-3.86-3.4-9.25-5.1-16.18-5.1c-4.27,0-8.32,0.98-12.16,2.94c-3.83,1.96-7.71,5.06-11.63,9.28
					l1.44-10.06h-17.12l-8.43,64.11h18.5l4.12-31.44c0.87-6.62,2.8-11.51,5.78-14.67s7.18-4.74,12.58-4.74
					c3.09,0,5.49,0.83,7.19,2.48c1.7,1.66,2.55,3.99,2.55,6.99c0,0.61-0.03,1.38-0.1,2.32s-0.16,2.04-0.29,3.3l-4.71,35.75h0.02
					l-2.1,15.94h-12.16l-1.9,14.57h12.22l-6.6,49.54h18.49l6.54-49.54h12.48l1.83-14.57h-12.42L307.8,100.94z"/>
			</g>
		</g>
		<g>
			<path class="st0" d="M374.29,120.09c10.07,0,18.09,2.9,24.08,8.69c5.99,5.8,8.99,13.57,8.99,23.33c0,10.67-3.53,19.48-10.59,26.4
				c-7.06,6.93-16.12,10.39-27.19,10.39c-9.8,0-17.65-2.88-23.53-8.63s-8.82-13.4-8.82-22.94c0-10.89,3.47-19.82,10.42-26.79
				C354.61,123.57,363.49,120.09,374.29,120.09z M374.42,136.95c-5.49,0-9.91,1.86-13.27,5.59s-5.03,8.62-5.03,14.67
				c0,4.57,1.25,8.19,3.76,10.85s5.94,3.99,10.29,3.99c5.4,0,9.8-1.83,13.2-5.49c3.4-3.66,5.1-8.43,5.1-14.31
				c0-4.79-1.23-8.52-3.69-11.18C382.32,138.41,378.86,137.03,374.42,136.95z"/>
		</g>
		<g>
			<path class="st0" d="M423.14,186.35l8.43-64.11h17.12l-1.44,10.06c3.92-4.22,7.8-7.32,11.63-9.28c3.83-1.96,7.89-2.94,12.16-2.94
				c6.93,0,12.32,1.7,16.18,5.1s5.78,8.13,5.78,14.18c0,2.4-0.37,6.27-1.11,11.63c-0.09,0.65-0.15,1.13-0.19,1.44l-4.45,33.92h-18.5
				l4.71-35.75c0.13-1.26,0.23-2.36,0.29-3.3c0.07-0.94,0.1-1.71,0.1-2.32c0-3.01-0.85-5.34-2.55-6.99c-1.7-1.66-4.1-2.48-7.19-2.48
				c-5.4,0-9.6,1.58-12.58,4.74c-2.98,3.16-4.91,8.05-5.78,14.67l-4.12,31.44L423.14,186.35L423.14,186.35L423.14,186.35z"/>
		</g>
	</g>
</g>
</svg>
