<svg xmlns="http://www.w3.org/2000/svg" viewBox="0 0 50.43 50.43"><defs><style>.cls-1{fill:#706a69;}</style></defs><title>Asset 7</title><g id="Layer_2" data-name="Layer 2"><g id="Layer_1-2" data-name="Layer 1"><path class="cls-1" d="M26.49,34.76H23.43a.93.93,0,0,1-.93-.93V26.94H20.72a.93.93,0,0,1-.93-.93v-3a.93.93,0,0,1,.93-.93H22.5V20.65A5,5,0,0,1,23.84,17a4.78,4.78,0,0,1,3.54-1.37h2.33a.93.93,0,0,1,.92.93v2.74a.93.93,0,0,1-.92.93H28.14c-.48,0-.6.09-.63.12a1,1,0,0,0-.09.57v1.17h2.17a.93.93,0,0,1,.93.93v3a.93.93,0,0,1-.92.93H27.42v6.89A.93.93,0,0,1,26.49,34.76Zm-2.87-1.12H26.3v-7.2a.61.61,0,0,1,.61-.62H29.4V23.25H26.91a.61.61,0,0,1-.61-.62V21a1.91,1.91,0,0,1,.37-1.31,1.91,1.91,0,0,1,1.47-.5h1.37V16.79H27.37a3.53,3.53,0,0,0-3.75,3.86v2a.61.61,0,0,1-.61.62h-2.1v2.57H23a.61.61,0,0,1,.61.62Zm6.09-16.85Z"/><path class="cls-1" d="M25.21,50.43A25.22,25.22,0,1,1,50.43,25.21,25.24,25.24,0,0,1,25.21,50.43ZM25.21,1A24.22,24.22,0,1,0,49.43,25.21,24.24,24.24,0,0,0,25.21,1Z"/></g></g></svg>