<svg xmlns="http://www.w3.org/2000/svg" viewBox="0 0 18.15 18.15"><defs><style>.cls-1{fill:#706a69;}</style></defs><title>Asset 1</title><g id="Layer_2" data-name="Layer 2"><g id="Layer_1-2" data-name="Layer 1"><path class="cls-1" d="M13.23,0H4.91A4.91,4.91,0,0,0,0,4.91v8.32a4.92,4.92,0,0,0,4.91,4.92h8.32a4.93,4.93,0,0,0,4.92-4.92V4.91A4.92,4.92,0,0,0,13.23,0Zm3.85,13.23a3.85,3.85,0,0,1-3.85,3.85H4.91a3.85,3.85,0,0,1-3.85-3.85V4.91A3.86,3.86,0,0,1,4.91,1.06h8.32a3.85,3.85,0,0,1,3.85,3.85Z"/><path class="cls-1" d="M9.07,4.11a5,5,0,1,0,5,5A5,5,0,0,0,9.07,4.11Zm0,8.86A3.9,3.9,0,1,1,13,9.07,3.91,3.91,0,0,1,9.07,13Z"/><path class="cls-1" d="M14.15,2.35a1.47,1.47,0,1,0,1.47,1.47A1.46,1.46,0,0,0,14.15,2.35Zm0,1.87a.41.41,0,0,1,0-.81.41.41,0,1,1,0,.81Z"/></g></g></svg>