<svg xmlns="http://www.w3.org/2000/svg" viewBox="0 0 50.43 50.43"><defs><style>.cls-1{fill:#706a69;}</style></defs><title>Asset 5</title><g id="Layer_2" data-name="Layer 2"><g id="Layer_1-2" data-name="Layer 1"><path class="cls-1" d="M29.37,16.14H21.05a4.91,4.91,0,0,0-4.91,4.91v8.32a4.92,4.92,0,0,0,4.91,4.92h8.32a4.93,4.93,0,0,0,4.92-4.92V21.05A4.92,4.92,0,0,0,29.37,16.14Zm3.85,13.23a3.85,3.85,0,0,1-3.85,3.85H21.05a3.85,3.85,0,0,1-3.85-3.85V21.05a3.86,3.86,0,0,1,3.85-3.85h8.32a3.85,3.85,0,0,1,3.85,3.85Z"/><path class="cls-1" d="M25.21,20.25a5,5,0,1,0,5,5A5,5,0,0,0,25.21,20.25Zm0,8.86a3.9,3.9,0,1,1,3.9-3.9A3.9,3.9,0,0,1,25.21,29.11Z"/><path class="cls-1" d="M30.29,18.49A1.47,1.47,0,1,0,31.76,20,1.46,1.46,0,0,0,30.29,18.49Zm0,1.87a.41.41,0,0,1,0-.81.41.41,0,1,1,0,.81Z"/><path class="cls-1" d="M25.21,50.43A25.22,25.22,0,1,1,50.43,25.21,25.24,25.24,0,0,1,25.21,50.43ZM25.21,1A24.22,24.22,0,1,0,49.43,25.21,24.24,24.24,0,0,0,25.21,1Z"/></g></g></svg>